<svg xmlns="http://www.w3.org/2000/svg" width="28" height="28" fill="none"><path fill="#fff" fill-rule="evenodd" d="M22.985 4.394h-4.97V3.15a.621.621 0 0 0-.621-.62h-.621a.621.621 0 0 0-.622.62v1.243h-4.97V3.15a.621.621 0 0 0-.62-.62h-.622a.621.621 0 0 0-.62.62v1.243h-4.97a.621.621 0 0 0-.622.621v18.636c0 .344.278.622.621.622h18.637a.621.621 0 0 0 .621-.622V5.015a.621.621 0 0 0-.621-.621Zm-1.243 18.015H5.591V6.258h3.727V7.5c0 .343.278.621.621.621h.622a.621.621 0 0 0 .62-.62V6.257h4.97V7.5c0 .343.279.621.622.621h.62a.621.621 0 0 0 .622-.62V6.257h3.727v16.151Z" clip-rule="evenodd"/></svg>