<svg xmlns="http://www.w3.org/2000/svg" width="35" height="27" fill="none"><mask id="b" width="33" height="24" x="1" y="1" maskUnits="userSpaceOnUse" style="mask-type:alpha"><path fill="url(#a)" d="M31.13 1.74H3.8a2.28 2.28 0 0 0-2.28 2.28v18.22a2.28 2.28 0 0 0 2.28 2.28h27.33a2.28 2.28 0 0 0 2.28-2.28V4.02a2.28 2.28 0 0 0-2.28-2.28Z"/></mask><g mask="url(#b)"><path fill="url(#c)" d="M33.4 1.74H1.53v22.78H33.4V1.74Z"/><path fill="url(#d)" d="M33.4 1.74H1.53V13.9H33.4V1.74Z"/><path fill="url(#e)" d="M33.4 13.89H1.53v10.63H33.4V13.89Z"/><path fill="#000F1E" fill-opacity=".1" fill-rule="evenodd" d="M3.8 1.74a2.28 2.28 0 0 0-2.28 2.28v18.22a2.28 2.28 0 0 0 2.28 2.28h27.33a2.28 2.28 0 0 0 2.28-2.28V4.02a2.28 2.28 0 0 0-2.28-2.28H3.8Zm.76 1.52c-.84 0-1.52.68-1.52 1.52v16.7c0 .84.68 1.52 1.52 1.52h25.81c.84 0 1.52-.68 1.52-1.52V4.78c0-.84-.68-1.52-1.52-1.52H4.56Z" clip-rule="evenodd"/></g><defs><linearGradient id="a" x1="1595.96" x2="1595.96" y1="1.74" y2="2279.52" gradientUnits="userSpaceOnUse"><stop stop-color="#fff"/><stop offset="1" stop-color="#F0F0F0"/></linearGradient><linearGradient id="c" x1="1595.96" x2="1595.96" y1="1.74" y2="2279.52" gradientUnits="userSpaceOnUse"><stop stop-color="#fff"/><stop offset="1" stop-color="#F0F0F0"/></linearGradient><linearGradient id="d" x1="1595.96" x2="1595.96" y1="1.74" y2="1216.56" gradientUnits="userSpaceOnUse"><stop stop-color="#EA233B"/><stop offset="1" stop-color="#CC162C"/></linearGradient><linearGradient id="e" x1="1595.96" x2="1595.96" y1="13.89" y2="1076.85" gradientUnits="userSpaceOnUse"><stop stop-color="#fff"/><stop offset="1" stop-color="#F0F0F0"/></linearGradient></defs></svg>